<svg id="Calque_1" data-name="Calque 1" xmlns="http://www.w3.org/2000/svg" viewBox="0 0 135.83 135.83"><defs><style>.cls-1{fill:#052c33;}.cls-2{fill:#fff;}</style></defs><title>dioka icones</title><circle class="cls-1" cx="70.43" cy="68.6" r="22"/><path class="cls-2" d="M80.89,69.12s0-.06.07-.1a.93.93,0,0,0,0-.84s0-.06-.07-.1a1,1,0,0,0-.19-.23s0,0,0,0L70.41,60A1,1,0,0,0,69.2,61.6l7.89,6H60.81a1,1,0,0,0,0,2H77.09l-7.89,6a1,1,0,0,0,.61,1.79,1,1,0,0,0,.6-.2L80.66,69.4s0,0,0-.05A1,1,0,0,0,80.89,69.12Z"/></svg>