<svg id="Calque_1" data-name="Calque 1" xmlns="http://www.w3.org/2000/svg" viewBox="0 0 135.83 135.83"><defs><style>.cls-1{fill:#ffe8e6;}.cls-2{fill:#052c33;}</style></defs><title>dioka icones</title><circle class="cls-1" cx="66.43" cy="67.6" r="22"/><path class="cls-2" d="M76.89,68.12s0-.06.07-.1a.93.93,0,0,0,0-.84s0-.06-.07-.1a1,1,0,0,0-.19-.23s0,0,0,0L66.41,59A1,1,0,0,0,65.2,60.6l7.89,6H56.81a1,1,0,0,0,0,2H73.09l-7.89,6a1,1,0,0,0,.61,1.79,1,1,0,0,0,.6-.2L76.66,68.4s0,0,0-.05A1,1,0,0,0,76.89,68.12Z"/></svg>