<svg id="Calque_1" data-name="Calque 1" xmlns="http://www.w3.org/2000/svg" viewBox="0 0 82 82"><defs><style>.cls-1{fill:#052c33;opacity:0.1;}.cls-2,.cls-3{fill:none;stroke:#000;stroke-width:0.25px;}.cls-2{stroke-miterlimit:10;}.cls-3{stroke-linecap:round;stroke-linejoin:round;}</style></defs><title>dioka icones</title><circle class="cls-1" cx="22.55" cy="29.55" r="17.5"/><path class="cls-2" d="M69.67,58.64V28.57a5.18,5.18,0,0,0-5.22-5.13H58.06V19.86a1.65,1.65,0,0,0-1.67-1.64H52a1.65,1.65,0,0,0-1.66,1.64v3.58H32.41V19.86a1.65,1.65,0,0,0-1.67-1.64H26.33a1.65,1.65,0,0,0-1.66,1.64v3.58h-6.4a5.18,5.18,0,0,0-5.22,5.13V66.75a5.17,5.17,0,0,0,5.22,5.12H54.64"/><path class="cls-2" d="M52.42,69.58H18.62a3.47,3.47,0,0,1-3.47-3.47V28.87a3.47,3.47,0,0,1,3.47-3.47H64.2a3.47,3.47,0,0,1,3.46,3.47V56.43"/><rect class="cls-2" x="23.87" y="43.12" width="7.92" height="9.5" rx="1.56" ry="1.56" transform="translate(75.69 20.03) rotate(90)"/><rect class="cls-2" x="50.93" y="43.12" width="7.92" height="9.5" rx="1.56" ry="1.56" transform="translate(102.76 -7.03) rotate(90)"/><rect class="cls-2" x="23.87" y="55" width="7.92" height="9.5" rx="1.56" ry="1.56" transform="translate(87.58 31.92) rotate(90)"/><rect class="cls-2" x="37.4" y="43.12" width="7.92" height="9.5" rx="1.56" ry="1.56" transform="translate(89.23 6.5) rotate(90)"/><rect class="cls-2" x="23.87" y="30.61" width="7.92" height="9.5" rx="1.56" ry="1.56" transform="translate(63.19 7.53) rotate(90)"/><rect class="cls-2" x="50.93" y="30.61" width="7.92" height="9.5" rx="1.56" ry="1.56" transform="translate(90.25 -19.54) rotate(90)"/><rect class="cls-2" x="37.4" y="30.61" width="7.92" height="9.5" rx="1.56" ry="1.56" transform="translate(76.72 -6) rotate(90)"/><rect class="cls-2" x="37.4" y="55" width="7.92" height="9.5" rx="1.56" ry="1.56" transform="translate(101.11 18.39) rotate(90)"/><circle class="cls-2" cx="60.84" cy="63.81" r="10.22"/><polyline class="cls-3" points="56.79 63.06 59.98 66.25 64.88 61.36"/></svg>