<?xml version="1.0" encoding="utf-8"?>
<!-- Generator: Adobe Illustrator 22.0.0, SVG Export Plug-In . SVG Version: 6.00 Build 0)  -->
<svg version="1.1" id="Calque_1" xmlns="http://www.w3.org/2000/svg" xmlns:xlink="http://www.w3.org/1999/xlink" x="0px" y="0px"
	 viewBox="0 0 48.5 48.8" style="enable-background:new 0 0 48.5 48.8;" xml:space="preserve">
<style type="text/css">
	.st0{fill:#052C33;}
	.st1{fill:#FFFFFF;}
</style>
<title>dioka icones</title>
<circle class="st0" cx="24.6" cy="24.4" r="22"/>
<path class="st1" d="M35,24.9C35,24.9,35,24.9,35,24.9c0.2-0.4,0.2-0.7,0.1-0.9c0,0,0-0.1-0.1-0.1c-0.1-0.1-0.1-0.2-0.2-0.2l0,0
	l-10.3-7.9c-0.4-0.3-1.1-0.2-1.4,0.2c-0.3,0.4-0.2,1.1,0.2,1.4l7.9,6H15c-0.6,0-1,0.4-1,1s0.4,1,1,1h16.3l-7.9,6
	c-0.4,0.3-0.5,1-0.2,1.4c0.2,0.2,0.5,0.4,0.8,0.4c0.2,0,0.4-0.1,0.6-0.2l10.3-7.8c0,0,0,0,0-0.1C34.9,25.1,35,25,35,24.9z"/>
</svg>
