<?xml version="1.0" encoding="utf-8"?>
<!-- Generator: Adobe Illustrator 22.0.0, SVG Export Plug-In . SVG Version: 6.00 Build 0)  -->
<svg version="1.1" id="Calque_1" xmlns="http://www.w3.org/2000/svg" xmlns:xlink="http://www.w3.org/1999/xlink" x="0px" y="0px"
	 viewBox="0 0 102.9 101" style="enable-background:new 0 0 102.9 101;" xml:space="preserve">
<style type="text/css">
	.st0{fill:#052C33;}
	.st1{fill:#FFFFFF;}
</style>
<title>dioka icones</title>
<circle class="st0" cx="51.6" cy="51.2" r="47.5"/>
<g id="_Groupe_">
	<g id="_Groupe_2">
		<path class="st1" d="M58.9,70.6H44.1c-6.6,0-12-5.4-12-12V43.8c0-6.6,5.4-12,12-12h14.8c6.6,0,12,5.4,12,12v14.8
			C70.9,65.2,65.6,70.6,58.9,70.6z M44.1,35.6c-4.5,0-8.2,3.7-8.2,8.2v14.8c0,4.5,3.7,8.2,8.2,8.2h14.8c4.5,0,8.2-3.7,8.2-8.2V43.8
			c0-4.5-3.7-8.2-8.2-8.2H44.1z"/>
		<circle id="_Tracé_" class="st1" cx="60.9" cy="41.8" r="2.1"/>
	</g>
</g>
<path class="st1" d="M51.6,60c-4.8,0-8.8-3.9-8.8-8.8c0-4.8,3.9-8.8,8.8-8.8c4.8,0,8.8,3.9,8.8,8.8l0,0C60.3,56,56.4,60,51.6,60z
	 M51.6,46.2c-2.8,0-5,2.2-5,5c0,2.8,2.2,5,5,5s5-2.2,5-5S54.3,46.2,51.6,46.2z"/>
</svg>
