<?xml version="1.0" encoding="utf-8"?>
<!-- Generator: Adobe Illustrator 22.0.0, SVG Export Plug-In . SVG Version: 6.00 Build 0)  -->
<svg version="1.1" id="Calque_1" xmlns="http://www.w3.org/2000/svg" xmlns:xlink="http://www.w3.org/1999/xlink" x="0px" y="0px"
	 viewBox="0 0 85.7 88" style="enable-background:new 0 0 85.7 88;" xml:space="preserve">
<style type="text/css">
	.st0{fill:#FFE8E6;}
	.st1{fill:#052C33;}
</style>
<title>dioka icones</title>
<circle class="st0" cx="43.3" cy="45.6" r="39"/>
<g id="_Groupe_">
	<g id="_Groupe_2">
		<path class="st1" d="M50.7,65H35.9c-6.6,0-12-5.4-12-12V38.2c0-6.6,5.4-12,12-12h14.8c6.6,0,12,5.4,12,12V53
			C62.7,59.6,57.3,65,50.7,65z M35.9,30c-4.5,0-8.2,3.7-8.2,8.2V53c0,4.5,3.7,8.2,8.2,8.2h14.8c4.5,0,8.2-3.7,8.2-8.2V38.2
			c0-4.5-3.7-8.2-8.2-8.2H35.9z"/>
		<circle id="_Tracé_" class="st1" cx="52.7" cy="36.3" r="2.1"/>
	</g>
</g>
<path class="st1" d="M43.3,54.4c-4.8,0-8.8-3.9-8.8-8.8c0-4.8,3.9-8.8,8.8-8.8c4.8,0,8.8,3.9,8.8,8.8l0,0
	C52.1,50.4,48.1,54.4,43.3,54.4z M43.3,40.6c-2.8,0-5,2.2-5,5c0,2.8,2.2,5,5,5s5-2.2,5-5S46.1,40.6,43.3,40.6z"/>
</svg>
