<?xml version="1.0" encoding="utf-8"?>
<!-- Generator: Adobe Illustrator 22.0.0, SVG Export Plug-In . SVG Version: 6.00 Build 0)  -->
<svg version="1.1" id="Calque_1" xmlns="http://www.w3.org/2000/svg" xmlns:xlink="http://www.w3.org/1999/xlink" x="0px" y="0px"
	 viewBox="0 0 22.1 24.5" style="enable-background:new 0 0 22.1 24.5;" xml:space="preserve">
<style type="text/css">
	.st0{fill:#052C33;}
</style>
<title>dioka icones</title>
<path class="st0" d="M10.4,22.7L10.4,22.7c0.4,0.2,0.7,0.2,0.9,0.1l0.1-0.1c0.1,0,0.2-0.1,0.2-0.2l0,0l7.8-10.3
	c0.4-0.4,0.3-1.1-0.1-1.4c-0.4-0.4-1.1-0.3-1.4,0.1c0,0,0,0-0.1,0.1l-6,7.9V2.6c0-0.6-0.4-1-1-1s-1,0.4-1,1v16.3l-6-7.9
	c-0.3-0.4-1-0.5-1.4-0.2c-0.2,0.2-0.4,0.5-0.4,0.8c0,0.2,0.1,0.4,0.2,0.6l7.8,10.3c0,0,0,0,0.1,0C10.2,22.5,10.3,22.6,10.4,22.7z"/>
</svg>
