<?xml version="1.0" encoding="utf-8"?>
<!-- Generator: Adobe Illustrator 22.0.0, SVG Export Plug-In . SVG Version: 6.00 Build 0)  -->
<svg version="1.1" id="Calque_1" xmlns="http://www.w3.org/2000/svg" xmlns:xlink="http://www.w3.org/1999/xlink" x="0px" y="0px"
	 viewBox="0 0 101 100.8" style="enable-background:new 0 0 101 100.8;" xml:space="preserve">
<style type="text/css">
	.st0{fill:#052C33;}
	.st1{fill:#FFFFFF;}
</style>
<title>dioka icones</title>
<circle class="st0" cx="50.2" cy="50.5" r="47.5"/>
<path class="st1" d="M73.3,33.3H27.1c-0.8,0-1.5,0.7-1.5,1.5v31c0,0.8,0.6,1.4,1.4,1.5c0.3,0.3,0.6,0.4,1,0.4h44.4
	c0.4,0,0.7-0.2,1-0.4c0.8-0.1,1.4-0.7,1.4-1.5v-31C74.7,34,74.1,33.3,73.3,33.3z M28.6,37.3l15.5,13.2L28.6,63.7L28.6,37.3z
	 M54,52.4l13.8,11.8H32.6l13.9-11.8l2.8,2.4c0.6,0.5,1.4,0.5,1.9,0L54,52.4z M56.3,50.4l15.5-13.2v26.5L56.3,50.4z M68.3,36.2
	L50.2,51.7L32.1,36.3L68.3,36.2z"/>
</svg>
