<svg id="Calque_1" data-name="Calque 1" xmlns="http://www.w3.org/2000/svg" viewBox="0 0 135.83 135.83"><defs><style>.cls-1{fill:#052c33;}.cls-2{fill:#fff;}</style></defs><title>dioka icones</title><circle class="cls-1" cx="70.43" cy="68.6" r="47.5"/><path class="cls-2" d="M93.56,51.38H47.31a1.5,1.5,0,0,0-1.5,1.5v31a1.49,1.49,0,0,0,1.38,1.49,1.49,1.49,0,0,0,1,.44h44.4a1.48,1.48,0,0,0,1-.44,1.5,1.5,0,0,0,1.39-1.49v-31A1.5,1.5,0,0,0,93.56,51.38Zm-44.75,4L64.34,68.6,48.81,81.86ZM74.22,70.57,88.06,82.39H52.8L66.65,70.57,69.46,73a1.49,1.49,0,0,0,1.94,0Zm2.31-2L92.06,55.34V81.86Zm12-14.22L70.43,69.86,52.3,54.38Z"/></svg>