<?xml version="1.0" encoding="utf-8"?>
<!-- Generator: Adobe Illustrator 22.0.0, SVG Export Plug-In . SVG Version: 6.00 Build 0)  -->
<svg version="1.1" id="Calque_1" xmlns="http://www.w3.org/2000/svg" xmlns:xlink="http://www.w3.org/1999/xlink" x="0px" y="0px"
	 viewBox="0 0 73.8 69.6" style="enable-background:new 0 0 73.8 69.6;" xml:space="preserve">
<style type="text/css">
	.st0{opacity:0.1;fill:#052C33;enable-background:new    ;}
	.st1{fill:none;stroke:#052C33;stroke-width:0.25;stroke-miterlimit:10;}
</style>
<title>dioka icones</title>
<circle class="st0" cx="20.7" cy="46.9" r="17.4"/>
<path class="st1" d="M69,5.1c-0.7-0.4-1.5-0.3-2.1,0.1l-28,17.7H17.3c-1.1,0-2,0.9-2,2v13.9c0,1.1,0.9,2,2,2H22V49
	c0,5.1,4.1,9.3,9.3,9.3h0.1c1.1,0,2-0.9,2-2c0,0,0,0,0-0.1V40.8h5.4l28.1,17.4c0.9,0.6,2.2,0.4,2.8-0.5c0,0,0.1-0.1,0.1-0.1
	c0.2-0.3,0.3-0.7,0.3-1.1V6.8C70.1,6.1,69.7,5.4,69,5.1z"/>
<path class="st1" d="M41.6,39l22.7,14c0.8,0.5,1.8,0.2,2.3-0.5c0.2-0.3,0.3-0.6,0.2-0.9v-40c0-0.6-0.3-1.2-0.9-1.5
	c-0.5-0.3-1.2-0.3-1.7,0L41.7,24.5L41.6,39z"/>
<line class="st1" x1="38.9" y1="22.8" x2="38.9" y2="40.8"/>
<line class="st1" x1="19.2" y1="40.8" x2="37.3" y2="40.8"/>
<line class="st1" x1="21.9" y1="22.8" x2="21.9" y2="40.8"/>
</svg>
