<svg id="Calque_1" data-name="Calque 1" xmlns="http://www.w3.org/2000/svg" viewBox="0 0 82.26 82.26"><defs><style>.cls-1{fill:#052c33;opacity:0.1;}.cls-2{fill:none;stroke:#052c33;stroke-miterlimit:10;stroke-width:0.25px;}</style></defs><title>dioka icones</title><circle class="cls-1" cx="21.86" cy="59.62" r="17.41"/><path class="cls-2" d="M70.22,17.74a2.06,2.06,0,0,0-2.09.06l-28,17.72H18.5a2.05,2.05,0,0,0-2.05,2v13.9a2.05,2.05,0,0,0,2.05,2.05h4.75v8.25A9.28,9.28,0,0,0,32.52,71h.09a2,2,0,0,0,2-2.05V53.49h5.41L68.15,70.87A2,2,0,0,0,71,70.21a2.12,2.12,0,0,0,.31-1.1V19.53A2.06,2.06,0,0,0,70.22,17.74Z"/><path class="cls-2" d="M42.84,51.73l22.75,14a1.66,1.66,0,0,0,2.28-.53,1.64,1.64,0,0,0,.25-.89v-40a1.65,1.65,0,0,0-.86-1.45,1.68,1.68,0,0,0-1.69.05l-22.7,14.3Z"/><line class="cls-2" x1="40.11" y1="35.44" x2="40.11" y2="53.5"/><line class="cls-2" x1="20.42" y1="53.5" x2="38.48" y2="53.5"/><line class="cls-2" x1="23.11" y1="35.44" x2="23.11" y2="53.5"/></svg>