<svg id="Calque_1" data-name="Calque 1" xmlns="http://www.w3.org/2000/svg" viewBox="0 0 135.83 135.83"><defs><style>.cls-1{fill:#052c33;}.cls-2{fill:#fff;}</style></defs><title>dioka icones</title><circle class="cls-1" cx="70.43" cy="68.6" r="47.5"/><g id="_Groupe_" data-name="&lt;Groupe&gt;"><g id="_Groupe_2" data-name="&lt;Groupe&gt;"><path class="cls-2" d="M77.82,88H63a12,12,0,0,1-12-12V61.21a12,12,0,0,1,12-12H77.82a12,12,0,0,1,12,12V76A12,12,0,0,1,77.82,88ZM63,53a8.22,8.22,0,0,0-8.21,8.21V76A8.22,8.22,0,0,0,63,84.2H77.82A8.22,8.22,0,0,0,86,76V61.21A8.22,8.22,0,0,0,77.82,53Z"/><circle id="_Tracé_" data-name="&lt;Tracé&gt;" class="cls-2" cx="79.81" cy="59.27" r="2.11"/></g></g><path class="cls-2" d="M70.43,77.38a8.78,8.78,0,1,1,8.78-8.78A8.79,8.79,0,0,1,70.43,77.38Zm0-13.8a5,5,0,1,0,5,5A5,5,0,0,0,70.43,63.58Z"/></svg>