<svg id="Calque_1" data-name="Calque 1" xmlns="http://www.w3.org/2000/svg" viewBox="0 0 79.03 80.52"><defs><style>.cls-1{fill:#052c33;opacity:0.1;}.cls-2{fill:none;stroke:#052c33;stroke-miterlimit:10;stroke-width:0.25px;}</style></defs><title>dioka icones</title><circle class="cls-1" cx="53.26" cy="56.81" r="17.5"/><path class="cls-2" d="M30.3,18V13.65a.68.68,0,0,0-.68-.67h-6a.67.67,0,0,0-.68.67V18"/><path class="cls-2" d="M13.58,58.71v2.45a5.51,5.51,0,0,0,5.54,5.46h15a5.52,5.52,0,0,0,5.52-5"/><path class="cls-2" d="M36.13,24.54a7.63,7.63,0,0,0-3.57-1.17H20.69a7.6,7.6,0,0,0-7.11,7.52V34"/><polyline class="cls-2" points="37.02 33.96 13.58 33.96 13.58 58.71 39.49 58.71"/><path class="cls-2" d="M41.93,61.57V64.8a1.68,1.68,0,0,0,1.5,1.82h8.89a1.68,1.68,0,0,0,1.5-1.82V61.57"/><path class="cls-2" d="M58.08,12.43H37.68a2.44,2.44,0,0,0-2.44,2.68l4.38,46.46H56.13l4.39-46.46A2.45,2.45,0,0,0,58.08,12.43Z"/><line class="cls-2" x1="38.86" y1="55.64" x2="56.63" y2="55.64"/><line class="cls-2" x1="35.77" y1="19.75" x2="59.99" y2="19.75"/><path class="cls-2" d="M32.54,23.37V19.79A1.78,1.78,0,0,0,30.79,18H22.47a1.77,1.77,0,0,0-1.75,1.76v3.58"/><line class="cls-2" x1="13.58" y1="35.61" x2="37.03" y2="35.61"/><line class="cls-2" x1="13.46" y1="56.94" x2="39.37" y2="56.94"/><line class="cls-2" x1="38.87" y1="53.55" x2="56.75" y2="53.55"/><line class="cls-2" x1="35.77" y1="21.61" x2="59.85" y2="21.61"/></svg>