<?xml version="1.0" encoding="utf-8"?>
<!-- Generator: Adobe Illustrator 22.0.0, SVG Export Plug-In . SVG Version: 6.00 Build 0)  -->
<svg version="1.1" id="Calque_1" xmlns="http://www.w3.org/2000/svg" xmlns:xlink="http://www.w3.org/1999/xlink" x="0px" y="0px"
	 viewBox="0 0 63.7 68.8" style="enable-background:new 0 0 63.7 68.8;" xml:space="preserve">
<style type="text/css">
	.st0{opacity:0.1;fill:#052C33;enable-background:new    ;}
	.st1{fill:none;stroke:#052C33;stroke-width:0.25;stroke-miterlimit:10;}
</style>
<title>dioka icones</title>
<circle class="st0" cx="43" cy="49" r="17.5"/>
<path class="st1" d="M20.1,10.2V5.8c0-0.4-0.3-0.7-0.7-0.7h-6c-0.4,0-0.7,0.3-0.7,0.7c0,0,0,0,0,0v4.4"/>
<path class="st1" d="M3.3,50.9v2.5c0,3,2.5,5.5,5.5,5.5h15c2.9,0,5.3-2.2,5.5-5"/>
<path class="st1" d="M25.9,16.7c-1.1-0.7-2.3-1.1-3.6-1.2H10.4c-4,0.3-7.1,3.5-7.1,7.5v3.1"/>
<polyline class="st1" points="26.8,26.1 3.3,26.1 3.3,50.9 29.2,50.9 "/>
<path class="st1" d="M31.7,53.7V57c-0.1,0.9,0.6,1.7,1.5,1.8h8.9c0.9-0.1,1.6-0.9,1.5-1.8v-3.2"/>
<path class="st1" d="M47.8,4.6H27.4C26.1,4.6,25,5.7,25,7c0,0.1,0,0.2,0,0.3l4.4,46.5h16.5l4.4-46.5c0.1-1.3-0.9-2.5-2.2-2.7
	C48,4.6,47.9,4.6,47.8,4.6z"/>
<line class="st1" x1="28.6" y1="47.8" x2="46.4" y2="47.8"/>
<line class="st1" x1="25.5" y1="11.9" x2="49.7" y2="11.9"/>
<path class="st1" d="M22.3,15.5V12c0-1-0.8-1.8-1.8-1.8h-8.3c-1,0-1.7,0.8-1.8,1.8v3.6"/>
<line class="st1" x1="3.3" y1="27.8" x2="26.8" y2="27.8"/>
<line class="st1" x1="3.2" y1="49.1" x2="29.1" y2="49.1"/>
<line class="st1" x1="28.6" y1="45.7" x2="46.5" y2="45.7"/>
<line class="st1" x1="25.5" y1="13.8" x2="49.6" y2="13.8"/>
</svg>
