<?xml version="1.0" encoding="utf-8"?>
<!-- Generator: Adobe Illustrator 22.0.0, SVG Export Plug-In . SVG Version: 6.00 Build 0)  -->
<svg version="1.1" id="Calque_1" xmlns="http://www.w3.org/2000/svg" xmlns:xlink="http://www.w3.org/1999/xlink" x="0px" y="0px"
	 viewBox="0 0 45.2 36.1" style="enable-background:new 0 0 45.2 36.1;" xml:space="preserve">
<style type="text/css">
	.st0{fill:#052C33;}
</style>
<title>dioka icones</title>
<path class="st0" d="M16,5.4c-5.7,5.9-7,9.1-7,14.3c4.9,0,8.4,2.3,8.4,7c0,3.6-3,6.6-6.6,6.6c-3.9,0-8.2-3.6-8.2-9.4
	C2.7,15.7,7.8,8,13.3,2.6L16,5.4z"/>
<path class="st0" d="M29.2,30.6c5.7-5.9,7-9.1,7-14.3c-4.9,0-8.4-2.3-8.4-7c0-3.6,3-6.6,6.6-6.6c3.9,0,8.2,3.6,8.2,9.4
	c0,8.2-5.1,15.9-10.7,21.3L29.2,30.6z"/>
</svg>
