<?xml version="1.0" encoding="utf-8"?>
<!-- Generator: Adobe Illustrator 22.0.0, SVG Export Plug-In . SVG Version: 6.00 Build 0)  -->
<svg version="1.1" id="Calque_1" xmlns="http://www.w3.org/2000/svg" xmlns:xlink="http://www.w3.org/1999/xlink" x="0px" y="0px"
	 viewBox="0 0 520 320" style="enable-background:new 0 0 520 320;" xml:space="preserve">
<style type="text/css">
	.st0{fill:#052C33;}
</style>
<g>
	<path class="st0" d="M335.2,199.4C335.2,199.3,335.2,199.3,335.2,199.4l-17.8-30.3l24.5-22.6h-8.5l-30.9,28.4l0-44.5l-11.5,0v7.4
		v11v49.2c0,8.9-8.8,8.9-8.2,8.9h8.2h11.5h7.9c0.6,0-7.3,0-7.9-8v-16.3l6.4-5.9l19,30.1h16.1C344.7,207,340,207,335.2,199.4z"/>
	<circle class="st0" cx="192.2" cy="137.4" r="7.1"/>
	<path class="st0" d="M244.3,146.4c-16.5,0-29.7,12.5-29.7,30.2c0,17.7,13.2,30.2,29.7,30.2s29.7-12.5,29.7-30.2
		C274,158.9,260.8,146.4,244.3,146.4z M244.3,205.2c-10.2,0-17-6.6-17-28.6c0-22,6.8-28.6,17-28.6c10.2,0,17,6.6,17,28.6
		C261.3,198.6,254.5,205.2,244.3,205.2z"/>
	<path class="st0" d="M198,199.4v-41.5h-11.6v41.5c0,0.1,0,0.2,0,0.2c-0.2,7.2-8.7,7.2-8.1,7.2h8.1h19.7
		C206.8,206.8,198,206.8,198,199.4z"/>
	<path class="st0" d="M163.9,199.4v-69.2h-11.5v7.3c0,0,0,0,0,0.1v18.2h-0.1c-0.2-0.2-0.4-0.5-0.5-0.7c-4.2-5-9.9-8.3-16.3-8.7
		c-0.5,0-0.9,0-1.4,0c-13.8,0-25,13.5-25,30.2c0,16.4,10.9,29.8,24.4,30.2c0.2,0,0.4,0,0.6,0c0,0,0,0,0,0c0,0,0,0,0,0
		c0.5,0,0.9,0,1.4,0c4.7-0.3,8.6-1.8,11.7-4.4c2.2-1.7,4.3-3.7,6-6.1v10.5h15.9C168.6,206.8,163.9,206.8,163.9,199.4z M137.6,204.5
		c-5.4-0.2-10.1-4.9-12.9-12c-1.8-4.5-2.9-10-2.9-15.9c0-6.3,1.2-12,3.2-16.7c3-6.8,7.7-11.3,13-11.3c0.7,0,1.3,0.1,1.9,0.1
		c2.7,0.4,5,1.6,6.9,3.7c1.6,1.8,3,4.1,4,7.1c1.5,4.3,2.3,9.9,2.3,16.6C153.2,193.6,147.1,204.2,137.6,204.5z"/>
	<path class="st0" d="M405.6,202.4c-3.9,0-4.2-4.5-4.2-6.8c0-1,0-11.3,0-11.3v-21c0-13-7.8-16.9-23.7-16.9c-2.3,0-4.6,0.3-6.8,0.8
		c-1.9,0.5-3.7,1.1-5.4,1.9c-4.8,2.3-8.2,6-8.6,10.1c0,0.3-0.1,0.6-0.1,0.8c0,0,0,0,0,0c0,0,0,0,0,0c0,0.2,0,0.5,0,0.7
		c0,0.1,0,0.2,0,0.3c0,0.1,0,0.3,0.1,0.4c0,0.2,0.1,0.4,0.1,0.5c0,0,0,0.1,0,0.1c0.1,0.2,0.1,0.4,0.2,0.6c0,0,0,0,0,0.1
		c0.1,0.2,0.1,0.3,0.2,0.5c0,0,0,0.1,0.1,0.1c0.1,0.1,0.1,0.3,0.2,0.4c0,0.1,0.1,0.2,0.1,0.2c0.1,0.1,0.1,0.2,0.2,0.2
		c0.1,0.1,0.2,0.2,0.3,0.4c0,0,0,0,0.1,0.1c1.3,1.5,3.2,2.5,5.4,2.5c0,0,0,0,0,0c0,0,0,0,0,0c0.3,0,0.5,0,0.7,0c0,0,0.1,0,0.1,0
		c0.2,0,0.4-0.1,0.6-0.1c0,0,0.1,0,0.1,0c0.1,0,0.1,0,0.2-0.1c0.1,0,0.3-0.1,0.4-0.1c0.1,0,0.2-0.1,0.3-0.1c0.1,0,0.2-0.1,0.4-0.1
		c0.1,0,0.1-0.1,0.2-0.1c0.2-0.1,0.3-0.1,0.5-0.2c0,0,0,0,0,0c2.2-1.2,3.6-3.5,3.6-6.2c0-0.6-0.1-1.2-0.2-1.8c0-0.1,0-0.1,0-0.2
		c0-0.1,0-0.1-0.1-0.2c-0.2-0.7-0.5-1.3-0.9-1.9c-1-1.4-2.5-2.5-4.3-2.9c0,0,2.9-5.1,11.7-5.1c7.1,0,12.6,4,12.6,10.1v11.4
		c-10.4,3.5-36.2,9.2-36.2,23.2c0,9.5,8.6,14.1,17.2,14.1c10.3,0,15.8-2.6,19.3-11.3c0,5.3,4.2,11.3,11.3,11.3c3.1,0,5.1-1,6.5-2.4
		v-2.8C407.4,202.1,406.6,202.4,405.6,202.4z M389.9,184.1c0,12.8-7.1,20.5-15.3,20.5c-6.1,0-9.1-4.6-9.1-11
		c0-12.4,15.3-19.5,24.4-21.9V184.1z"/>
</g>
</svg>
