<?xml version="1.0" encoding="utf-8"?>
<!-- Generator: Adobe Illustrator 22.0.0, SVG Export Plug-In . SVG Version: 6.00 Build 0)  -->
<svg version="1.1" id="Calque_1" xmlns="http://www.w3.org/2000/svg" xmlns:xlink="http://www.w3.org/1999/xlink" x="0px" y="0px"
	 viewBox="0 0 73.3 67.7" style="enable-background:new 0 0 73.3 67.7;" xml:space="preserve">
<style type="text/css">
	.st0{opacity:0.1;fill:#052C33;enable-background:new    ;}
	.st1{fill:none;stroke:#000000;stroke-width:0.25;stroke-miterlimit:10;}
	.st2{fill:none;stroke:#000000;stroke-width:0.25;stroke-linecap:round;stroke-linejoin:round;}
</style>
<title>dioka icones</title>
<circle class="st0" cx="20.8" cy="20.9" r="17.5"/>
<path class="st1" d="M67.9,49.9V19.9c0-2.9-2.4-5.2-5.2-5.1h-6.4v-3.6c0-0.9-0.7-1.6-1.7-1.6c0,0,0,0,0,0h-4.4
	c-0.9,0-1.7,0.7-1.7,1.6c0,0,0,0,0,0v3.6H30.6v-3.6c0-0.9-0.7-1.6-1.7-1.6c0,0,0,0,0,0h-4.4c-0.9,0-1.7,0.7-1.7,1.6c0,0,0,0,0,0v3.6
	h-6.4c-2.9,0-5.2,2.3-5.2,5.1v38.2c0,2.9,2.4,5.1,5.2,5.1c0,0,0,0,0,0h36.4"/>
<path class="st1" d="M50.6,60.9H16.8c-1.9,0-3.5-1.6-3.5-3.5l0,0V20.2c0-1.9,1.6-3.5,3.5-3.5h45.6c1.9,0,3.5,1.6,3.5,3.5v27.6"/>
<path class="st1" d="M30.8,36.8v4.8c0,0.9-0.7,1.6-1.6,1.6h-6.4c-0.9,0-1.6-0.7-1.6-1.6v-4.8c0-0.9,0.7-1.6,1.6-1.6h6.4
	C30.1,35.2,30.8,35.9,30.8,36.8z"/>
<path class="st1" d="M57.8,36.8v4.8c0,0.9-0.7,1.6-1.6,1.6h-6.4c-0.9,0-1.6-0.7-1.6-1.6v-4.8c0-0.9,0.7-1.6,1.6-1.6h6.4
	C57.2,35.2,57.8,35.9,57.8,36.8z"/>
<path class="st1" d="M30.8,48.7v4.8c0,0.9-0.7,1.6-1.6,1.6h-6.4c-0.9,0-1.6-0.7-1.6-1.6v-4.8c0-0.9,0.7-1.6,1.6-1.6h6.4
	C30.1,47.1,30.8,47.8,30.8,48.7z"/>
<path class="st1" d="M44.3,36.8v4.8c0,0.9-0.7,1.6-1.6,1.6h-6.4c-0.9,0-1.6-0.7-1.6-1.6v-4.8c0-0.9,0.7-1.6,1.6-1.6h6.4
	C43.6,35.2,44.3,35.9,44.3,36.8z"/>
<path class="st1" d="M30.8,24.3v4.8c0,0.9-0.7,1.6-1.6,1.6h-6.4c-0.9,0-1.6-0.7-1.6-1.6v-4.8c0-0.9,0.7-1.6,1.6-1.6h6.4
	C30.1,22.7,30.8,23.4,30.8,24.3z"/>
<path class="st1" d="M57.8,24.3v4.8c0,0.9-0.7,1.6-1.6,1.6h-6.4c-0.9,0-1.6-0.7-1.6-1.6v-4.8c0-0.9,0.7-1.6,1.6-1.6h6.4
	C57.2,22.7,57.8,23.4,57.8,24.3z"/>
<path class="st1" d="M44.3,24.3v4.8c0,0.9-0.7,1.6-1.6,1.6h-6.4c-0.9,0-1.6-0.7-1.6-1.6v-4.8c0-0.9,0.7-1.6,1.6-1.6h6.4
	C43.6,22.7,44.3,23.4,44.3,24.3z"/>
<path class="st1" d="M44.3,48.7v4.8c0,0.9-0.7,1.6-1.6,1.6h-6.4c-0.9,0-1.6-0.7-1.6-1.6v-4.8c0-0.9,0.7-1.6,1.6-1.6h6.4
	C43.6,47.1,44.3,47.8,44.3,48.7z"/>
<circle class="st1" cx="59" cy="55.1" r="10.2"/>
<polyline class="st2" points="55,54.4 58.2,57.6 63.1,52.7 "/>
</svg>
