<?xml version="1.0" encoding="utf-8"?>
<!-- Generator: Adobe Illustrator 22.0.0, SVG Export Plug-In . SVG Version: 6.00 Build 0)  -->
<svg version="1.1" id="Calque_1" xmlns="http://www.w3.org/2000/svg" xmlns:xlink="http://www.w3.org/1999/xlink" x="0px" y="0px"
	 viewBox="0 0 307.4 89.6" style="enable-background:new 0 0 307.4 89.6;" xml:space="preserve">
<style type="text/css">
	.st0{fill:#052C33;}
</style>
<path class="st0" d="M212.2,72.9C212.2,72.9,212.2,72.9,212.2,72.9l-15.6-26.5l21.4-19.8h-7.4l-27,24.8V12.6h-10.1v6.5v9.6v43
	c0,7.8-7.7,7.8-7.2,7.8h7.2h10.1h6.9c0.5,0-6.4,0-6.9-7V58.4l5.6-5.2l16.6,26.3h14.1C220.5,79.6,216.4,79.6,212.2,72.9z"/>
<circle class="st0" cx="87" cy="18.7" r="6.2"/>
<path class="st0" d="M132.7,26.6c-14.4,0-26,10.9-26,26.4s11.5,26.4,26,26.4s26-10.9,26-26.4S147.1,26.6,132.7,26.6z M132.7,78
	c-8.9,0-14.9-5.8-14.9-25s5.9-25,14.9-25s14.9,5.8,14.9,25C147.5,72.2,141.5,78,132.7,78z"/>
<path class="st0" d="M92.1,72.9V36.6H82v36.3c0,0.1,0,0.2,0,0.2c-0.2,6.3-7.6,6.3-7.1,6.3H82h17.2C99.8,79.4,92.1,79.4,92.1,72.9z"
	/>
<path class="st0" d="M62.3,72.9V12.4H52.3v6.5c0,0,0,0,0,0.1v15.9h-0.1c-0.2-0.2-0.3-0.4-0.4-0.6c-3.7-4.4-8.7-7.3-14.3-7.6
	c-0.4,0-0.8,0-1.2,0c-12.1,0-21.9,11.8-21.9,26.4c0,14.3,9.5,26.1,21.3,26.4c0.2,0,0.3,0,0.5,0l0,0l0,0c0.4,0,0.8,0,1.2,0
	c4.1-0.3,7.5-1.6,10.2-3.8c1.9-1.5,3.8-3.2,5.2-5.3v9.2h13.9C66.4,79.4,62.3,79.4,62.3,72.9z M39.3,77.5C34.7,77.2,30.5,73.1,28,67
	c-1.6-3.9-2.5-8.7-2.5-13.9c0-5.5,1-10.5,2.8-14.6c2.6-5.9,6.7-9.9,11.4-9.9c0.6,0,1.1,0.1,1.7,0.1c2.4,0.3,4.4,1.4,6,3.2
	c1.4,1.6,2.6,3.6,3.5,6.2c1.3,3.8,2,8.7,2,14.5C52.9,67.9,47.5,77.1,39.3,77.5z"/>
<path class="st0" d="M273.8,75.6c-3.4,0-3.7-3.9-3.7-5.9c0-0.9,0-9.9,0-9.9V41.4c0-11.4-6.8-14.8-20.7-14.8c-2,0-4,0.3-5.9,0.7
	c-1.7,0.4-3.2,1-4.7,1.7c-4.2,2-7.2,5.2-7.5,8.8c0,0.3-0.1,0.5-0.1,0.7l0,0l0,0c0,0.2,0,0.4,0,0.6c0,0.1,0,0.2,0,0.3
	c0,0.1,0,0.3,0.1,0.3c0,0.2,0.1,0.3,0.1,0.4v0.1c0.1,0.2,0.1,0.3,0.2,0.5c0,0,0,0,0,0.1c0.1,0.2,0.1,0.3,0.2,0.4c0,0,0,0.1,0.1,0.1
	c0.1,0.1,0.1,0.3,0.2,0.3c0,0.1,0.1,0.2,0.1,0.2c0.1,0.1,0.1,0.2,0.2,0.2c0.1,0.1,0.2,0.2,0.3,0.3c0,0,0,0,0.1,0.1
	c1.1,1.3,2.8,2.2,4.7,2.2l0,0l0,0c0.3,0,0.4,0,0.6,0h0.1c0.2,0,0.3-0.1,0.5-0.1h0.1c0.1,0,0.1,0,0.2-0.1c0.1,0,0.3-0.1,0.3-0.1
	s0.2-0.1,0.3-0.1c0.1,0,0.2-0.1,0.3-0.1c0.1,0,0.1-0.1,0.2-0.1c0.2-0.1,0.3-0.1,0.4-0.2l0,0c1.9-1,3.1-3.1,3.1-5.4
	c0-0.5-0.1-1-0.2-1.6c0-0.1,0-0.1,0-0.2s0-0.1-0.1-0.2c-0.2-0.6-0.4-1.1-0.8-1.7c-0.9-1.2-2.2-2.2-3.8-2.5c0,0,2.5-4.5,10.2-4.5
	c6.2,0,11,3.5,11,8.8v10c-9.1,3.1-31.7,8-31.7,20.3c0,8.3,7.5,12.3,15,12.3c9,0,13.8-2.3,16.9-9.9c0,4.6,3.7,9.9,9.9,9.9
	c2.7,0,4.5-0.9,5.7-2.1v-2.4C275.4,75.3,274.7,75.6,273.8,75.6z M260.1,59.6c0,11.2-6.2,17.9-13.4,17.9c-5.3,0-8-4-8-9.6
	c0-10.8,13.4-17.1,21.3-19.2V59.6z"/>
<g>
	<path class="st0" d="M294.5,55.7c-0.2,0-0.3-0.1-0.4-0.2l-1-1.4c0,0-0.1,0-0.2,0l-1.3,0l0,1.1c0,0.3-0.2,0.5-0.5,0.5l0,0
		c-0.3,0-0.5-0.2-0.5-0.5l-0.1-4.7c0-0.3,0.2-0.5,0.5-0.5l1.9,0c0.5,0,0.9,0.1,1.3,0.2s0.6,0.4,0.8,0.7c0.2,0.3,0.3,0.7,0.3,1.1
		c0,0.4-0.1,0.8-0.3,1.1c-0.2,0.3-0.5,0.5-0.9,0.7l0.8,1.1C295.1,55.2,294.9,55.7,294.5,55.7L294.5,55.7z M293.8,51.2
		c-0.2-0.2-0.6-0.3-1-0.3l-1.2,0l0,2.2l1.2,0c0.5,0,0.8-0.1,1-0.3c0.2-0.2,0.3-0.5,0.3-0.8C294.2,51.7,294.1,51.4,293.8,51.2z"/>
	<path class="st0" d="M292.7,47.1C292.7,47.1,292.6,47.1,292.7,47.1c-1.6,0-3.1,0.7-4.2,1.8c-1.1,1.1-1.7,2.6-1.7,4.2
		c0,3.3,2.7,5.9,6,5.9c0,0,0,0,0.1,0c1.6,0,3-0.7,4.1-1.8c1.1-1.1,1.7-2.6,1.7-4.2C298.6,49.7,295.9,47,292.7,47.1z M292.8,57.8
		C292.8,57.8,292.8,57.8,292.8,57.8c-1.3,0-2.5-0.5-3.5-1.4c-0.9-0.9-1.4-2.1-1.4-3.4c0-2.6,2.1-4.8,4.7-4.8c0,0,0,0,0.1,0
		c2.6,0,4.8,2.1,4.8,4.7c0,1.3-0.5,2.5-1.4,3.4C295.3,57.3,294.1,57.8,292.8,57.8z"/>
</g>
</svg>
